<?xml version="1.0"?><svg xmlns="http://www.w3.org/2000/svg" version="1.1" width="277.5" height="150" viewBox="0 0 185 110"><g><rect x="0" y="0" width="185" height="100" fill="none"/><g transform="translate(10 10)"><g><rect x="10" y="0" width="2" height="30" fill="#b3d654"/><rect x="13" y="0" width="1" height="30" fill="#b3d654"/><rect x="16" y="0" width="1" height="30" fill="#b3d654"/><rect x="21" y="0" width="3" height="30" fill="#b3d654"/><rect x="25" y="0" width="3" height="30" fill="#b3d654"/><rect x="29" y="0" width="2" height="30" fill="#b3d654"/><rect x="32" y="0" width="1" height="30" fill="#b3d654"/><rect x="35" y="0" width="1" height="30" fill="#b3d654"/><rect x="37" y="0" width="2" height="30" fill="#b3d654"/><rect x="43" y="0" width="1" height="30" fill="#b3d654"/><rect x="45" y="0" width="4" height="30" fill="#b3d654"/><rect x="51" y="0" width="1" height="30" fill="#b3d654"/><rect x="54" y="0" width="1" height="30" fill="#b3d654"/><rect x="56" y="0" width="4" height="30" fill="#b3d654"/><rect x="62" y="0" width="1" height="30" fill="#b3d654"/><rect x="65" y="0" width="3" height="30" fill="#b3d654"/><rect x="69" y="0" width="3" height="30" fill="#b3d654"/><rect x="73" y="0" width="2" height="30" fill="#b3d654"/><rect x="76" y="0" width="1" height="30" fill="#b3d654"/><rect x="80" y="0" width="4" height="30" fill="#b3d654"/><rect x="85" y="0" width="1" height="30" fill="#b3d654"/><rect x="87" y="0" width="1" height="30" fill="#b3d654"/><rect x="90" y="0" width="1" height="30" fill="#b3d654"/><rect x="93" y="0" width="4" height="30" fill="#b3d654"/><rect x="98" y="0" width="1" height="30" fill="#b3d654"/><rect x="101" y="0" width="4" height="30" fill="#b3d654"/><rect x="106" y="0" width="1" height="30" fill="#b3d654"/><rect x="109" y="0" width="1" height="30" fill="#b3d654"/><rect x="111" y="0" width="2" height="30" fill="#b3d654"/><rect x="115" y="0" width="1" height="30" fill="#b3d654"/><rect x="120" y="0" width="1" height="30" fill="#b3d654"/><rect x="123" y="0" width="1" height="30" fill="#b3d654"/><rect x="126" y="0" width="4" height="30" fill="#b3d654"/><rect x="131" y="0" width="2" height="30" fill="#b3d654"/><rect x="136" y="0" width="1" height="30" fill="#b3d654"/><rect x="140" y="0" width="1" height="30" fill="#b3d654"/><rect x="142" y="0" width="2" height="30" fill="#b3d654"/><rect x="147" y="0" width="3" height="30" fill="#b3d654"/><rect x="151" y="0" width="1" height="30" fill="#b3d654"/><rect x="153" y="0" width="2" height="30" fill="#b3d654"/></g><defs>
			<linearGradient id="black" x1="0" x2="0" y1="0" y2="1">
				<stop offset="0%" stop-color="#000"/>
				<stop offset="100%" stop-color="#000"/>
			</linearGradient>
			<linearGradient id="navyBlue" x1="0" x2="0" y1="0" y2="1">
				<stop offset="0%" stop-color="#00379c"/>
				<stop offset="100%" stop-color="#00379c"/>
			</linearGradient>
			<linearGradient id="midnightGreen" x1="0" x2="0" y1="0" y2="1">
				<stop offset="0%" stop-color="#008000"/>
				<stop offset="100%" stop-color="#008000"/>
			</linearGradient>
			<linearGradient id="holo" x1="0" x2="0" y1="0" y2="1">
				<stop offset="0%" stop-color="#ae00ff"/>
				<stop offset="100%" stop-color="#009dff"/>
			</linearGradient>
			<linearGradient id="gradient" x1="0" x2="0" y1="0" y2="1">
				<stop offset="0%" stop-color="#d85bc6"/>
				<stop offset="100%" stop-color="#5c4cff"/>
			</linearGradient>
			<linearGradient id="neon" x1="0" x2="0" y1="0" y2="1">
				<stop offset="0%" stop-color="#00c400"/>
				<stop offset="100%" stop-color="#00612a"/>
			</linearGradient>
		</defs></g></g></svg>